<svg id="Layer_1" data-name="Layer 1" xmlns="http://www.w3.org/2000/svg" width="239.05" height="239.01" viewBox="0 0 239.05 239.01"><title>InShot logo - Brandlogos.net</title><path d="M290.32,271.9a50.29,50.29,0,0,0-23,28.91c-2.85,9.27-3.13,19.1-2.74,28.72-.25,9,0,18-.11,27,.06,15-.12,30,.09,45-.14,11.73-.17,23.49,0,35.21-.36,11.54-.27,23.52,4.16,34.37a50.12,50.12,0,0,0,28.42,28.19c6.11,2.47,12.67,3.46,19.2,4,7.09.27,14.18.08,21.26.14H443.18c8.62.1,17.41-.52,25.59-3.41a48.07,48.07,0,0,0,19.85-12.59c8.17-8.16,13-19.37,14.18-30.79.85-5,.68-10.13.71-15.2,0-33,0-66,0-99.05.11-3.09,0-6.19,0-9.29-.08-9.07.51-18.32-1.62-27.21a49.62,49.62,0,0,0-10.1-22l-.18-.05c-7.39-9.65-18.71-15.94-30.6-18.12a79.52,79.52,0,0,0-13.9-1.31c-12.17,0-24.34-.06-36.51,0-29.7-.11-59.4,0-89.11-.05C310.74,264.52,299.7,266.42,290.32,271.9Z" transform="translate(-264.48 -264.49)" style="fill:#f8f8f8"/><path d="M494.62,306.29c1.85.54,3.55-.38,5-1.45.75.36,1.51.73,2.26,1.13,2.13,8.89,1.54,18.13,1.62,27.21,0,3.09.07,6.19,0,9.29-.23,1-.54,2-.83,3-.34-1.19-.65-2.39-1-3.56a5.69,5.69,0,0,0-.65,3c-.37-1.08-.74-2.17-1.08-3.26-.25.78-.5,1.55-.75,2.32-1-.17-2-.3-3-.42a4.74,4.74,0,0,1-1.23,3l-1.27-.79c-.34.59-.67,1.18-1,1.78q-1.49-.18-3-.49c-1.09,2.4-3.86,2.49-6.05,3.21-.48-1.28-.28-3.57-2.19-3.45.27,1.38,1.12,2.9.51,4.29a12.11,12.11,0,0,1-3.44.4c-.26.28-.52.57-.78.86l-.9-.54c-.05.27-.16.83-.22,1.1l-1-.45-1.21,1.32c-.22-.48-.44-1-.65-1.43-.87,2.13-3.37,2.25-5.23,3a22.92,22.92,0,0,0-8,3.28c-.26-3,.58-6.18-.65-9.05-.37-6.58.68-13.32-1.12-19.77a29.16,29.16,0,0,0-5.07-10.14c1.36-.84,2.72-2,4.43-1.86,1.17-.09,2.58.42,3.49-.56,1.45-1.4,3.53-1.52,5.37-2.08l-.67-.95a21.57,21.57,0,0,1,5.46.6l.13-1.95a4.83,4.83,0,0,0,3.1-1.49c1.44-.73,2.75.47,3.77,1.35a13.88,13.88,0,0,1,2.14-2.92l1.64,1.37,1.95-2.09c.25.51.52,1,.8,1.54.32-.29.66-.56,1-.83a10.1,10.1,0,0,1,3.83-1l.81-1.75.51,1.36c.15-.36.31-.71.46-1.07l2.06.22C494.18,307.16,494.4,306.72,494.62,306.29Z" transform="translate(-264.48 -264.49)" style="fill:#ff3b59"/><path d="M290.32,271.9c9.38-5.48,20.42-7.38,31.16-7.4,29.71,0,59.41-.06,89.11.05-2.14,1.69-5,1.18-7.54,1.6-.09.56-.17,1.13-.26,1.7l-.63-2.14c-.15.56-.28,1.13-.42,1.69-2.37,1-5.22.9-7.19,2.76-1.59-.28-3,.53-4.56.82-1.32.19-2.23,1.59-3.65,1.35s-2.51,1-3.58,1.75c-.21-.52-.4-1-.6-1.56a18.85,18.85,0,0,1-1.29,2.17c-1.22.51-2.5-.27-3.75-.12-.78.12-1.09.92-1.51,1.47l-1-.66-.36,1.34c-.18-.49-.35-1-.52-1.47l-.81,1.49c-.11-.73-.22-1.45-.33-2.17-.34,1.26-.67,2.53-1,3.79a7.18,7.18,0,0,1-1.69-3.24l-1.93,2-.52-1.39c-.07.34-.23,1-.31,1.36l-.85-.63q-.65,1.68-1.29,3.37l-.87-.35a25.93,25.93,0,0,1-4.7,0l-1.36,2.75-.61-1.45c-.17.92-.34,1.84-.52,2.76-.19-.92-.37-1.83-.54-2.75-.18.65-.4,1.28-.64,1.92-2,1.32-4.38,2.61-6.83,1.76-.21.52-.41,1.06-.61,1.59l-.89-.47-1.57,1.14-1.32-.6c-.84,1.14-1.76,2.5-3.35,1.79l-1.21,1-1.21-.57L337,290a12.47,12.47,0,0,0-2.27-1.24c-1.19-.27-1.42,1.21-2,1.92l-.31-1.54c-.16.44-.31.89-.46,1.33l-.78-.46a14.25,14.25,0,0,1-1.42,2.07,13.58,13.58,0,0,1-2,.22c-.52.8-1,1.6-1.51,2.43-.7-.79-1.33-1.95-2.56-1.87-4.28-.14-8.58-.07-12.87,0a2.53,2.53,0,0,0-2.62,2.43c-.09,4.32,0,8.64,0,13-4.34.06-8.68-.06-13,0-1.09,0-1.74,1-2.4,1.66l-.9,1c-.17,4.47,0,9-.35,13.42-.28-1.22-.52-2.45-.74-3.67a9.15,9.15,0,0,0-4.75,2.08c-.48.05-1,.13-1.43.17-1,.4-2,.84-3.08,1.2-1.91.11-3.31,1.93-5.28,1.7-1.64-.28-2.77,1.21-4.3,1.44-2,.3-3.78,1.4-5.58,2.27-.83.27-.75,1.24-.82,1.94-.09,3.58.27,7.17-.2,10.74-.74-4.21.36-8.54-.75-12.7-.4-9.62-.12-19.45,2.74-28.72A50.29,50.29,0,0,1,290.32,271.9Z" transform="translate(-264.48 -264.49)" style="fill:#ff3673"/><path d="M410.6,264.55c12.17-.09,24.34,0,36.51,0a79.52,79.52,0,0,1,13.9,1.31c11.89,2.18,23.21,8.47,30.6,18.12-2.35-.24-3.52-2.55-5.4-3.67-2.67,2-6.22,1.89-9,3.62-2.81,1.54-6.23,1.11-9,2.78-2.19,1.13-4.82,1.15-6.79,2.75l-1.87-.52a6,6,0,0,1-3.69,2.09c-1.95.16-3.51,1.51-5.41,1.8-2.17.41-3.95,1.87-6.12,2.27-2.64.42-4.74,2.34-7.4,2.68-3.23.4-5.85,2.68-9.14,2.82-2.29,1.41-5.38,1.36-7,3.8-1.25-.21-2.63-1-3.82-.22-1.92,1-3.92,1.88-5.89,2.81-2-.85-3.88.7-5.89.56-10.81,0-21.61-.18-32.42,0-2.86.13-5.86-.54-8.59.64-12.66.13-25.33,0-38,.06,0-1.47,0-3,0-4.43,0-3-.14-6.05.08-9.07.46-.83,1-1.63,1.51-2.43a13.58,13.58,0,0,0,2-.22,14.25,14.25,0,0,0,1.42-2.07l.78.46c.15-.45.31-.89.46-1.33l.31,1.54c.56-.71.79-2.19,2-1.92A12.47,12.47,0,0,1,337,290l1.81-1.66,1.21.57,1.21-1c1.59.71,2.51-.65,3.35-1.79l1.32.6,1.57-1.14.89.47c.2-.53.4-1.07.61-1.59,2.46.85,4.82-.44,6.83-1.76.24-.63.45-1.27.64-1.92.16.92.35,1.84.54,2.75.18-.92.35-1.84.52-2.76l.61,1.45,1.36-2.75a25.93,25.93,0,0,0,4.7,0l.87.35q.64-1.69,1.29-3.37l.85.63c.08-.34.23-1,.31-1.36l.52,1.39,1.93-2a7.18,7.18,0,0,0,1.69,3.24c.35-1.26.69-2.53,1-3.79.11.72.22,1.45.33,2.17l.81-1.49c.17.49.35,1,.52,1.47l.36-1.34,1,.66c.41-.55.73-1.35,1.51-1.47,1.25-.15,2.53.63,3.75.12a18.85,18.85,0,0,0,1.29-2.17c.2.52.39,1,.6,1.56,1.07-.78,2.1-2,3.58-1.75s2.33-1.16,3.65-1.35c1.52-.28,3-1.1,4.56-.82,2-1.86,4.81-1.75,7.19-2.76.14-.56.28-1.13.42-1.69l.63,2.14c.08-.57.17-1.14.26-1.7C405.58,265.73,408.45,266.24,410.6,264.55Z" transform="translate(-264.48 -264.49)" style="fill:#ff3867"/><path d="M291.89,310.93l.9-1c-.08,4.41,0,8.82,0,13.22a2.73,2.73,0,0,0,2.54,3c8.8.09,17.61-.08,26.41.08,2.28,1.44,5.05.68,7.59.82,6.54.1,13.12-.33,19.65.31a9.12,9.12,0,0,0-3.08,4.23,10.17,10.17,0,0,1-1.59-2.39c-.87.42-1.71.89-2.6,1.27-1.28.29-2.7.18-3.76,1.08l-.78-.28c-.21.52-.42,1.06-.63,1.59l-.89-.35a30.66,30.66,0,0,0-4.35,1.78l-.56-.08-1.12.89c-.42-.3-.81-.61-1.25-.87-1.57.48-2.69,1.95-4.38,2.17-2.9.83-6.16,1.22-8.52,3.24l-.2-1a9.52,9.52,0,0,1-3.15.8,12.07,12.07,0,0,1-1.64,1.56c-1.1.27-2.26.2-3.34.56a26.71,26.71,0,0,0-3,1.68,14.47,14.47,0,0,1-2.68-.32l-.75,1.62-.73-.23a8.88,8.88,0,0,1-2,1.63c-1.31.44-2.78-.35-4,.44-1.85,1-4.06,1.2-5.61,2.72l-2.37-.51c-.78,1.75-2.84,1.73-4.43,2.14-2.27.39-4.2,2.06-6.59,1.8l-1.09.83-.77-.07-1,.79a13.84,13.84,0,0,0-6.76,3.42l-.75-.89c.07-9-.15-18,.11-27,1.12,4.15,0,8.49.75,12.7.47-3.57.11-7.16.2-10.74.07-.7,0-1.67.82-1.94,1.8-.88,3.57-2,5.58-2.27,1.53-.23,2.66-1.73,4.3-1.44,2,.23,3.37-1.59,5.28-1.7,1-.36,2.05-.8,3.08-1.2.47,0,.95-.12,1.43-.17a9.15,9.15,0,0,1,4.75-2.08c.21,1.23.45,2.46.74,3.67C291.92,319.89,291.72,315.4,291.89,310.93Z" transform="translate(-264.48 -264.49)" style="fill:#ff3867"/><path d="M477.17,283.89c2.81-1.74,6.35-1.59,9-3.62,1.88,1.12,3,3.43,5.4,3.67l.18.05a49.62,49.62,0,0,1,10.1,22c-.74-.4-1.5-.77-2.26-1.13-1.46,1.07-3.16,2-5,1.45-.22.44-.45.87-.66,1.31l-2.06-.22c-.16.36-.31.71-.46,1.07l-.51-1.36-.81,1.75a10.1,10.1,0,0,0-3.83,1c-.35.27-.68.54-1,.83-.27-.51-.55-1-.8-1.54l-1.95,2.09-1.64-1.37a13.88,13.88,0,0,0-2.14,2.92c-1-.88-2.34-2.08-3.77-1.35a4.83,4.83,0,0,1-3.1,1.49l-.13,1.95a21.57,21.57,0,0,0-5.46-.6l.67.95c-1.83.56-3.91.69-5.37,2.08-.91,1-2.32.47-3.49.56-1.7-.12-3.07,1-4.43,1.86a29.5,29.5,0,0,0-22.76-11.53c-22.24-.08-44.48.06-66.72-.07,2.73-1.17,5.73-.51,8.59-.64,10.81-.16,21.61.06,32.42,0,2,.14,3.9-1.42,5.89-.56,2-.94,4-1.78,5.89-2.81,1.19-.74,2.57,0,3.82.22,1.59-2.44,4.68-2.39,7-3.8,3.28-.14,5.9-2.42,9.14-2.82,2.66-.34,4.77-2.26,7.4-2.68,2.17-.4,4-1.86,6.12-2.27,1.9-.29,3.46-1.64,5.41-1.8a6,6,0,0,0,3.69-2.09l1.87.52c2-1.6,4.6-1.62,6.79-2.75C470.94,285,474.36,285.43,477.17,283.89Z" transform="translate(-264.48 -264.49)" style="fill:#ff395f"/><path d="M321.69,326.23c36-.13,72.09,0,108.14-.06a11.57,11.57,0,0,1,11.89,10.17c-1.13,5.86-.52,11.82-.94,17.72-.94-4-.18-8-.75-12-3.15.67-5.9,2.46-9,3.22-2.86.6-5.49,1.88-8.28,2.72a36.42,36.42,0,0,0-9.14,3.51q1.19,1.58,2.5,3.07l-.38,1.31a42.37,42.37,0,0,0-31.1-14.22,41,41,0,0,0-16.53,3.09,42.8,42.8,0,0,0-25.59,30.51,34.25,34.25,0,0,0-5,2,46.32,46.32,0,0,0-9.77,3.59c-.14,1.46-.27,2.92-.41,4.38-.22-4.48-.07-9-.08-13.46-.06-1.82.48-4-1-5.38-.09-7.4,0-14.81-.06-22.21-6,.06-12-.09-18,.08,0,4.05.07,8.11-.05,12.17-1.44,3.49-.41,7.26-.6,10.89-.2,6.75,0,13.5-.17,20.24-2.65.28-4.84,2-7.48,2.33a18.83,18.83,0,0,0-4.81,1.7c-4.6,1.61-9.27,3-13.84,4.69-2.49,1.28-5.29,1.71-7.82,2.88-.42.2-.9,0-1.34,0-2.1,1.06-4.41,1.66-6.4,3-.12,1.44-.23,2.89-.31,4.33-.18-1.62-.47-3.23-.79-4.82-.21-15,0-30-.09-45l.75.89A13.84,13.84,0,0,1,272,354l1-.79.77.07,1.09-.83c2.39.26,4.32-1.41,6.59-1.8,1.6-.41,3.66-.4,4.43-2.14l2.37.51c1.55-1.52,3.75-1.76,5.61-2.72,1.23-.79,2.7,0,4-.44a8.88,8.88,0,0,0,2-1.63l.73.23.75-1.62a14.47,14.47,0,0,0,2.68.32,26.71,26.71,0,0,1,3-1.68c1.08-.36,2.24-.29,3.34-.56a12.07,12.07,0,0,0,1.64-1.56,9.52,9.52,0,0,0,3.15-.8l.2,1c2.36-2,5.62-2.42,8.52-3.24,1.69-.22,2.81-1.69,4.38-2.17.44.26.83.58,1.25.87l1.12-.89.56.08a30.66,30.66,0,0,1,4.35-1.78l.89.35c.21-.53.42-1.06.63-1.59l.78.28c1.07-.9,2.48-.79,3.76-1.08.88-.39,1.73-.85,2.6-1.27a10.17,10.17,0,0,0,1.59,2.39,9.12,9.12,0,0,1,3.08-4.23c-6.53-.64-13.11-.21-19.65-.31C326.75,326.91,324,327.66,321.69,326.23Z" transform="translate(-264.48 -264.49)" style="fill:#ff395f"/><path d="M308.24,295.22a2.53,2.53,0,0,1,2.62-2.43c4.29,0,8.58-.09,12.87,0,1.23-.08,1.86,1.07,2.56,1.87-.22,3-.08,6-.08,9.07a25.26,25.26,0,0,0-1.32-2.64c-.09.74-.16,1.5-.22,2.24l-.68-.69c-1.36,1.19-3,2.2-3.66,4l-2,.46c2.38,1.35,5.23,1,7.86,1.06,12.66-.06,25.33.07,38-.06,22.24.13,44.48,0,66.72.07a29.5,29.5,0,0,1,22.76,11.53,29.16,29.16,0,0,1,5.07,10.14c1.79,6.44.74,13.18,1.12,19.77-.12,24.71,0,49.43,0,74.14-6,.18-12,0-18,.08q0-28.59,0-57.19c-.07-10.11.14-20.24-.11-30.35a11.57,11.57,0,0,0-11.89-10.17c-36.05.05-72.09-.07-108.14.06-8.8-.16-17.61,0-26.41-.08a2.73,2.73,0,0,1-2.54-3c0-4.41,0-8.82,0-13.22.65-.71,1.31-1.7,2.4-1.66,4.33-.09,8.68,0,13,0C308.25,303.87,308.14,299.55,308.24,295.22Z" transform="translate(-264.48 -264.49)" style="fill:#fff"/><path d="M368.08,344.72a41,41,0,0,1,16.53-3.09,42.37,42.37,0,0,1,31.1,14.22,43.77,43.77,0,0,1,10.23,21.41,43.11,43.11,0,0,1-4.2,26,42.4,42.4,0,1,1-53.66-58.58Zm15,14.9a24.38,24.38,0,0,0-16.9,41,24.39,24.39,0,1,0,16.9-41Z" transform="translate(-264.48 -264.49)" style="fill:#fff"/><path d="M308.2,344.21c6-.17,12,0,18-.08.07,7.4,0,14.81.06,22.21-.07,21,0,41.93,0,62.9a27.17,27.17,0,0,0,.16,3.09,11.72,11.72,0,0,0,6.51,8.39c2.51,1.38,5.44,1.1,8.19,1.09H472.23a2.8,2.8,0,0,1,3.07,3c0,4.11.05,8.23,0,12.34a2.68,2.68,0,0,1-3,2.65c-4.18,0-8.35,0-12.52,0h-.41q-8.79,0-17.57,0-51.79,0-103.58,0a30.48,30.48,0,0,1-11.94-2.32,29.7,29.7,0,0,1-18-25.23c-.22-6.7,0-13.4-.13-20.1q.14-27.89,0-55.8C308.27,352.32,308.17,348.26,308.2,344.21Z" transform="translate(-264.48 -264.49)" style="fill:#fff"/><path d="M324.88,301.14a25.26,25.26,0,0,1,1.32,2.64c0,1.47,0,3,0,4.43-2.63-.07-5.47.3-7.86-1.06l2-.46c.62-1.79,2.31-2.8,3.66-4l.68.69C324.71,302.63,324.79,301.88,324.88,301.14Z" transform="translate(-264.48 -264.49)" style="fill:#eae7e9"/><path d="M441.79,459.82q8.79,0,17.57,0a28.79,28.79,0,0,1-.6,7.77c-1-.56-2-1.36-3.15-1.31-.94-.09-1.58.69-2.26,1.21,0-.31-.13-.94-.17-1.25l-.61.53a13.69,13.69,0,0,0-3.41-.08,6.46,6.46,0,0,1-1.27,0l-.51-.3-.46,1c-1.4-1-2.94-.3-4,.78a10.4,10.4,0,0,0-1-4.08C441.78,462.65,441.78,461.23,441.79,459.82Z" transform="translate(-264.48 -264.49)" style="fill:#eae7e9"/><path d="M441.72,336.34c.25,10.11,0,20.24.11,30.35q0,28.6,0,57.19c6-.06,12,.09,18-.08,0-24.71-.08-49.43,0-74.14,1.23,2.87.39,6,.65,9.05a22.92,22.92,0,0,1,8-3.28c1.86-.75,4.37-.88,5.23-3,.21.47.42.95.65,1.43l1.21-1.32,1,.45c.06-.27.17-.83.22-1.1l.9.54c.25-.29.51-.58.78-.86a12.11,12.11,0,0,0,3.44-.4c.61-1.4-.24-2.91-.51-4.29,1.92-.12,1.71,2.16,2.19,3.45,2.19-.72,5-.81,6.05-3.21q1.47.31,3,.49c.32-.6.66-1.19,1-1.78l1.27.79a4.74,4.74,0,0,0,1.23-3c1,.12,2,.25,3,.42.25-.78.5-1.55.75-2.32.35,1.09.71,2.18,1.08,3.26a5.69,5.69,0,0,1,.65-3c.38,1.17.69,2.37,1,3.56.3-1,.6-2,.83-3,.07,33,0,66,0,99.05,0,5.07.15,10.18-.71,15.2-1.18,11.42-6,22.63-14.18,30.79a48.07,48.07,0,0,1-19.85,12.59c-8.19,2.89-17,3.51-25.59,3.41H337.66c-7.09-.06-14.18.13-21.26-.14-6.53-.54-13.09-1.53-19.2-4a50.12,50.12,0,0,1-28.42-28.19c-4.43-10.86-4.52-22.84-4.16-34.37a39.4,39.4,0,0,1,.67,6.54c.61-2.17,0-4.47.55-6.64,1.14-1.14,3-1.3,4.35-2.11a8.63,8.63,0,0,1,1,2.42,5.31,5.31,0,0,0-3.19,4c.19.82,1,1.22,1.54,1.79a7.48,7.48,0,0,0,.84-2.61,5.47,5.47,0,0,0,1.55.44,13.49,13.49,0,0,0,.07-4.16,12.92,12.92,0,0,1,2.74,4.44c1.65-.38,3.58-1.33,3.81-3.21.24-1.54.47-3.07.69-4.61-.88,0-1.75,0-2.62.06a15,15,0,0,1,4.74-2l.68,1.07c1.16-2,3.53-2.22,5.48-2.94,2.36-.79,4.55-2.16,7.09-2.33,0,1.07-.08,2.15-.12,3.23l.89-.2a30.41,30.41,0,0,1,2.55-3c-.27,1.26-1.46,2.72-.39,3.9a16.8,16.8,0,0,0,2.17-2.8,8,8,0,0,1,1.09,3.1,8.5,8.5,0,0,0,5.35-2.13,16.52,16.52,0,0,1-.75-4.33c-.55-.42-1.33-.18-2-.23,0,.64,0,1.27,0,1.91l-1.15-1.09a3.45,3.45,0,0,1-2.72,0c2.54-1,5.17-2.48,8-2.12.22-3.66-.78-7.49.62-11,.17,6.7-.09,13.4.13,20.1a29.7,29.7,0,0,0,18,25.23,30.48,30.48,0,0,0,11.94,2.32q51.79,0,103.58,0c0,1.41,0,2.83.07,4.24,0,2.92-.12,5.84,0,8.76a2.71,2.71,0,0,0,3,2.44c4.11,0,8.23,0,12.34,0a2.56,2.56,0,0,0,2.62-2.41c.12-4.33-.06-8.67,0-13,4.17,0,8.35,0,12.52,0a2.68,2.68,0,0,0,3-2.65c.08-4.11,0-8.23,0-12.34a2.8,2.8,0,0,0-3.07-3H341c-2.75,0-5.67.28-8.19-1.09a11.72,11.72,0,0,1-6.51-8.39c1.24-2.91.19-6.11.83-9.13.49-2.41.3-4.88.54-7.31.85-.92,2.21-1.18,3.35-1.62,6.15-1.85,12.09-4.47,18.4-5.76a42.35,42.35,0,0,0,72.27-5.22,43.11,43.11,0,0,0,4.2-26l1,.85c.2,1.14.3,2.31.42,3.46,3.45-1.49,7-2.66,10.47-4.15a4,4,0,0,1,2.54-.12,14.47,14.47,0,0,0,.42,6.19c.35-6,.08-11.94.19-17.92,0-3.84.18-7.68-.16-11.51C441.2,348.16,440.59,342.2,441.72,336.34Z" transform="translate(-264.48 -264.49)" style="fill:#ff3e49"/><path d="M431,345.24c3.12-.76,5.87-2.55,9-3.22.56,4-.2,8.09.75,12,.34,3.83.13,7.68.16,11.51-.11,6,.16,12-.19,17.92a14.47,14.47,0,0,1-.42-6.19,4,4,0,0,0-2.54.12c-3.45,1.49-7,2.66-10.47,4.15-.12-1.16-.22-2.32-.42-3.46l-1-.85a43.77,43.77,0,0,0-10.23-21.41l.38-1.31q-1.32-1.48-2.5-3.07a36.42,36.42,0,0,1,9.14-3.51C425.51,347.12,428.15,345.84,431,345.24Z" transform="translate(-264.48 -264.49)" style="fill:#ff3b53"/><path d="M307.55,367.26c.18-3.63-.84-7.4.6-10.89q.11,27.9,0,55.8c-1.4,3.51-.4,7.34-.62,11-2.82-.36-5.46,1.1-8,2.12a3.45,3.45,0,0,0,2.72,0l1.15,1.09c0-.64,0-1.27,0-1.91.65.06,1.43-.19,2,.23a16.52,16.52,0,0,0,.75,4.33,8.5,8.5,0,0,1-5.35,2.13,8,8,0,0,0-1.09-3.1,16.8,16.8,0,0,1-2.17,2.8c-1.07-1.18.12-2.64.39-3.9a30.41,30.41,0,0,0-2.55,3l-.89.2c0-1.08.08-2.16.12-3.23-2.54.17-4.72,1.55-7.09,2.33-1.95.73-4.32,1-5.48,2.94l-.68-1.07a15,15,0,0,0-4.74,2c.87,0,1.74-.09,2.62-.06-.22,1.54-.45,3.07-.69,4.61-.22,1.88-2.16,2.83-3.81,3.21a12.92,12.92,0,0,0-2.74-4.44,13.49,13.49,0,0,1-.07,4.16,5.47,5.47,0,0,1-1.55-.44,7.48,7.48,0,0,1-.84,2.61c-.54-.57-1.35-1-1.54-1.79a5.31,5.31,0,0,1,3.19-4,8.63,8.63,0,0,0-1-2.42c-1.38.81-3.21,1-4.35,2.11-.55,2.17.07,4.47-.55,6.64a39.4,39.4,0,0,0-.67-6.54c-.18-11.73-.15-23.48,0-35.21.32,1.6.61,3.21.79,4.82.08-1.45.2-2.89.31-4.33,2-1.3,4.3-1.89,6.4-3,.44,0,.92.2,1.34,0,2.53-1.17,5.33-1.6,7.82-2.88,4.56-1.7,9.24-3.08,13.84-4.69a18.83,18.83,0,0,1,4.81-1.7c2.64-.29,4.82-2.05,7.48-2.33C307.57,380.76,307.36,374,307.55,367.26Z" transform="translate(-264.48 -264.49)" style="fill:#ff3b53"/><path d="M326.22,366.34c1.5,1.41,1,3.56,1,5.38,0,4.48-.14,9,.08,13.46.14-1.46.27-2.93.41-4.38a46.32,46.32,0,0,1,9.77-3.59,34.25,34.25,0,0,1,5-2,42.54,42.54,0,0,0,7,33.29c-6.32,1.28-12.25,3.91-18.4,5.76-1.14.44-2.5.7-3.35,1.62-.24,2.43-.05,4.9-.54,7.31-.64,3,.41,6.21-.83,9.13a27.17,27.17,0,0,1-.16-3.09C326.22,408.27,326.15,387.31,326.22,366.34Z" transform="translate(-264.48 -264.49)" style="fill:#ff3b53"/><path d="M383.1,359.62a24.38,24.38,0,1,1-20,11.79A24.25,24.25,0,0,1,383.1,359.62Z" transform="translate(-264.48 -264.49)" style="fill:#ff3d4e"/><path d="M459.36,459.81h.41c0,4.33.16,8.67,0,13a2.56,2.56,0,0,1-2.62,2.41c-4.11.08-8.23,0-12.34,0a2.71,2.71,0,0,1-3-2.44c-.11-2.92,0-5.84,0-8.76a10.4,10.4,0,0,1,1,4.08c1.1-1.08,2.64-1.8,4-.78l.46-1,.51.3a6.46,6.46,0,0,0,1.27,0,13.69,13.69,0,0,1,3.41.08l.61-.53c0,.31.13.94.17,1.25.68-.51,1.31-1.3,2.26-1.21,1.19-.06,2.17.74,3.15,1.31A28.79,28.79,0,0,0,459.36,459.81Z" transform="translate(-264.48 -264.49)" style="fill:#fffcfd"/></svg>